<svg width="28" height="28" viewBox="0 0 28 28" fill="none" xmlns="http://www.w3.org/2000/svg">
<rect width="28" height="28" rx="5" fill="#0263B2"/>
<path d="M8.392 18.448C8.392 17.584 8.632 16.832 9.112 16.192C9.592 15.552 10.216 15.064 10.984 14.728C11.592 14.456 12.304 14.184 13.12 13.912C13.936 13.64 14.568 13.352 15.016 13.048C15.464 12.744 15.688 12.384 15.688 11.968V9.976C15.688 9.48 15.488 9.152 15.088 8.992C14.656 8.816 13.984 8.728 13.072 8.728C11.968 8.728 10.512 8.928 8.704 9.328V6.688C10.304 6.352 11.976 6.184 13.72 6.184C15.608 6.184 17.008 6.472 17.92 7.048C18.848 7.624 19.312 8.584 19.312 9.928V12.088C19.312 12.904 19.064 13.616 18.568 14.224C18.088 14.816 17.464 15.264 16.696 15.568C15.976 15.872 15.24 16.144 14.488 16.384C13.672 16.672 13.024 16.992 12.544 17.344C12.08 17.696 11.848 18.112 11.848 18.592V19.384H19.336V22H8.392V18.448Z" fill="white"/>
</svg>
