<svg width="28" height="28" viewBox="0 0 28 28" fill="none" xmlns="http://www.w3.org/2000/svg">
<rect width="28" height="28" rx="5" fill="#0263B2"/>
<path d="M13.36 22.24C12.016 22.24 10.272 22.12 8.128 21.88V19.096L8.896 19.24C9.2 19.304 9.368 19.344 9.4 19.36L10.216 19.504C10.408 19.536 10.816 19.584 11.44 19.648C11.92 19.696 12.408 19.72 12.904 19.72C13.832 19.72 14.472 19.608 14.824 19.384C15.192 19.16 15.376 18.736 15.376 18.112V16.312C15.376 15.56 14.568 15.184 12.952 15.184H10.12V12.784H12.952C14.2 12.784 14.824 12.328 14.824 11.416V9.904C14.824 9.568 14.76 9.312 14.632 9.136C14.504 8.944 14.272 8.808 13.936 8.728C13.616 8.648 13.136 8.608 12.496 8.608C11.584 8.608 10.176 8.704 8.272 8.896V6.4C10.448 6.256 11.984 6.184 12.88 6.184C14.832 6.184 16.24 6.408 17.104 6.856C17.984 7.304 18.424 8.096 18.424 9.232V11.8C18.424 12.264 18.28 12.664 17.992 13C17.72 13.32 17.368 13.536 16.936 13.648C18.344 14.144 19.048 14.92 19.048 15.976V18.52C19.048 19.848 18.592 20.8 17.68 21.376C16.768 21.952 15.328 22.24 13.36 22.24Z" fill="white"/>
</svg>
